<svg width="599.9999999999999" height="599.9999999999999" xmlns="http://www.w3.org/2000/svg">

 <g label="square" id="imagebot_2">
  <title>square</title>
  <g id="imagebot_9">
   <path label="square" d="M 391.75 53.04 L 369.582 53.162 L 371.725 121.871 L 299.525 73.554 L 300.811 111.828 L 532.351 265.408 C 544.081 265.576 556.046 263.004 548.946 240.362 L 394.396 137.012 L 391.756 53.052 L 391.75 53.04 Z M 292.73 73.13 L 44.29 240.86 C 37.4013 261.596 50.9798 266.216 60.885 265.906 L 293.345 112.256 L 292.735 73.126 Z M 126.1 233.63 L 98.175 255.002 L 98.175 529.772 L 125.181 529.772 L 126.1 233.622 Z M 467.07 233.63 L 467.989 529.78 L 494.995 529.78 L 494.995 255.01 L 467.071 233.638 Z M 82.81 534.92 C 79.0319 539.574 77.2359 544.228 82.81 548.882 L 510.37 548.882 C 513.519 545.278 516.443 541.598 510.37 534.92 L 82.81 534.92 Z" transform="translate(1.5625 -1.5625)" fill="#000000" id="imagebot_7"/>
   <g label="square" transform="matrix(1.1313 -0.03922 0.040744 1.089 -81.046 -434.055)" id="imagebot_4">
    <g transform="matrix(2.7323 -1.2672 0.82272 3.5256 -909.03 417.33)" id="imagebot_5">
     <path d="M 410.34 221.66 C 410.372 225.738 409.127 259.415 361.59 292.535 C 338.263 313.163 264.502 376.385 298.228 417.485 C 294.192 424.203 289.585 431.036 285.532 457.226 C 282.105 436.003 274.384 429.504 271.777 425.191 C 293.457 382.91 267.781 362.037 246.027 334.753 C 219.01 310.084 225.527 281.722 225.527 281.722 S 192.786 408.652 243.058 431.752 C 243.058 431.752 260.752 435.118 269.902 428.377 C 284.12 451.944 283.404 473.648 283.404 473.648 L 288.528 473.556 C 286.472 458.867 301.09 422.377 301.09 422.377 C 313.764 429.972 337.434 417.846 337.434 417.846 C 423.764 382.163 410.723 226.036 410.34 221.656 L 410.34 221.66 Z" transform="matrix(0.33901 0.064567 -0.008778 0.27464 274.2 112.44)" fill="#44aa00" id="imagebot_6"/>
    </g>
   </g>
  </g>
 </g>
 <metadata>image/svg+xmlOpencliparteco green house icon2012-06-01T15:48:03https://openclipart.org/detail/170344/eco-green-house-icon-by-cybergedeon-170344dominiquechappardecologygreengreen househomehouse</metadata>
</svg>